<svg xmlns="http://www.w3.org/2000/svg" width="400" height="400">
  <!-- Background -->
  <rect width="100%" height="100%" fill="#FFFFFF" />
  
  <!-- Computer -->
  <rect x="100" y="100" width="200" height="180" fill="#E0E0E0" />
  
  <!-- Screen -->
  <rect x="110" y="110" width="180" height="130" fill="#FFFFFF" />
  
  <!-- Code -->
  <text x="130" y="200" fill="#000000" font-size="16">
    &lt;code&gt;
  </text>
  
  <!-- Man -->
  <circle cx="200" cy="280" r="50" fill="#4F4F4F" />
  <circle cx="200" cy="245" r="8" fill="#FFFFFF" />
  <path d="M185,310 Q200,320 215,310" fill="none" stroke="#000000" stroke-width="2" />
  <path d="M185,315 Q200,325 215,315" fill="none" stroke="#000000" stroke-width="2" />
  <path d="M185,320 Q200,330 215,320" fill="none" stroke="#000000" stroke-width="2" />
  <rect x="180" y="280" width="40" height="10" fill="#4F4F4F" />
  <rect x="185" y="290" width="30" height="40" fill="#4F4F4F" />
  <circle cx="200" cy="260" r="5" fill="#FFD700" />
  
  <!-- Facial expression -->
  <circle cx="188" cy="245" r="4" fill="#FFFFFF" />
  <circle cx="212" cy="245" r="4" fill="#FFFFFF" />
  <path d="M188,260 Q200,240 212,260" fill="none" stroke="#000000" stroke-width="2" />
</svg>